<svg width="553" height="171" viewBox="0 0 553 171" fill="none" xmlns="http://www.w3.org/2000/svg">
<g clip-path="url(#clip0_1100_13813)">
<path d="M220.793 117.553V58.1483C220.793 55.8922 219.024 54.1172 216.775 54.1172H191.506C189.257 54.1172 187.487 56.0581 187.487 58.3141V120.29C187.487 134.49 183.618 142.237 171.231 142.237C158.845 142.237 154.826 134.49 154.826 120.29V58.1483C154.826 55.8922 153.057 54.1172 150.807 54.1172H125.39C123.141 54.1172 121.371 55.8922 121.371 58.1483V118.681C121.371 151.609 135.213 170.338 170.933 170.338C206.654 170.338 220.81 150.481 220.81 117.553H220.793Z" fill="#F2F5FF"/>
<path d="M312.079 138.371H269.926V58.1483C269.926 55.8922 268.156 54.1172 265.907 54.1172H240.489C238.24 54.1172 236.471 55.8922 236.471 58.1483V163.056C236.471 165.312 238.24 167.087 240.489 167.087H312.096C314.345 167.087 316.114 165.312 316.114 163.056V142.403C316.114 140.146 314.345 138.371 312.096 138.371H312.079Z" fill="#F2F5FF"/>
<path d="M426.964 98.3428C426.964 68.9641 409.583 54.1172 377.567 54.1172H332.999C330.75 54.1172 328.98 55.8922 328.98 58.1483V163.056C328.98 165.312 330.75 167.087 332.999 167.087H358.417C360.666 167.087 362.435 165.146 362.435 162.89V142.552H377.567C409.583 142.552 426.964 127.705 426.964 98.3262V98.3428ZM374.342 114.484H362.435V82.202H374.342C387.853 82.202 393.493 88.1739 393.493 98.3428C393.493 108.512 387.853 114.484 374.342 114.484Z" fill="#F2F5FF"/>
<path d="M494.071 50.8984C457.706 50.8984 435.992 73.4923 435.992 110.933C435.992 148.374 457.722 170.337 494.071 170.337C530.42 170.337 552.15 148.059 552.15 110.303C552.15 72.5468 530.437 50.8984 494.071 50.8984ZM494.071 141.772C478.94 141.772 469.778 130.956 469.778 110.618C469.778 90.2801 478.956 79.4643 494.071 79.4643C509.186 79.4643 518.364 90.5953 518.364 110.618C518.364 130.641 509.037 141.772 494.071 141.772Z" fill="#F2F5FF"/>
<path d="M89.1728 1.20863C88.379 -0.367302 86.1465 -0.40048 85.3031 1.15886L77.6133 15.4418C76.3895 17.6979 73.8097 18.8591 71.3291 18.2121C66.5333 16.9514 60.9767 16.238 55.0564 16.238C49.5164 16.238 44.2906 16.8684 39.7098 17.9799C37.2788 18.5771 34.7486 17.3827 33.5579 15.1764L26.083 1.15886C25.2561 -0.40048 23.0071 -0.367302 22.2133 1.20863L1.85586 41.8511C0.896694 43.7754 2.28583 46.048 4.43568 46.048H5.13024C26.5295 46.048 45.349 60.2148 51.3189 80.8347L53.6176 88.7641L55.4533 94.6199C55.6352 95.2171 56.1974 95.6152 56.8093 95.6152C57.4212 95.6152 57.9835 95.2005 58.1654 94.6033L58.6946 92.8781L62.5974 79.1426C68.1705 59.5513 85.9977 46.048 106.305 46.048H106.917C109.067 46.048 110.456 43.7754 109.497 41.8511L89.1728 1.20863Z" fill="#EF9C2E"/>
<path d="M106.338 52.6797C88.9907 52.6797 73.7433 64.2255 68.9806 80.9635L65.0613 94.7819L63.854 98.6969C62.2665 104.005 60.6127 110.093 59.0582 115.883C58.4463 118.189 55.1885 118.172 54.5931 115.883C53.0883 110.11 51.4345 104.072 49.8469 98.8794L47.2837 90.7177L44.9684 82.7219C39.8088 64.9554 23.5692 52.7295 5.13006 52.7295C1.75645 52.7295 -0.50916 55.7984 0.615377 59.0166L39.23 163.277C39.7096 164.737 41.1649 165.699 42.769 165.699H68.1868C69.7909 165.699 71.2462 164.737 71.7258 163.277L110.671 59.0166C111.961 55.6325 109.712 52.7295 106.322 52.7295L106.338 52.6797Z" fill="#F2F5FF"/>
</g>
<defs>
<clipPath id="clip0_1100_13813">
<rect width="551.833" height="170.333" fill="white" transform="translate(0.333984)"/>
</clipPath>
</defs>
</svg>
